<?xml version="1.0" standalone="no"?>
<!DOCTYPE svg PUBLIC "-//W3C//DTD SVG 20010904//EN"
 "http://www.w3.org/TR/2001/REC-SVG-20010904/DTD/svg10.dtd">
<svg version="1.0" xmlns="http://www.w3.org/2000/svg"
 width="512.000000pt" height="512.000000pt" viewBox="0 0 512.000000 512.000000"
 preserveAspectRatio="xMidYMid meet">
<metadata>
Created by potrace 1.14, written by Peter Selinger 2001-2017
</metadata>
<g transform="translate(0.000000,512.000000) scale(0.100000,-0.100000)"
fill="#000000" stroke="none">
<path d="M2545 4653 c-45 -9 -75 -27 -111 -67 -22 -23 -115 -125 -209 -226
-93 -102 -172 -187 -176 -190 -17 -14 -31 -57 -31 -100 1 -36 10 -65 35 -112
46 -84 118 -221 212 -403 43 -82 98 -185 122 -229 24 -43 43 -82 43 -86 0 -16
61 -59 97 -69 46 -13 109 2 145 33 30 25 414 797 422 846 9 60 -13 98 -142
248 -70 81 -139 161 -154 177 -15 17 -47 53 -70 81 -66 79 -123 109 -183 97z"/>
<path d="M1270 3774 c-69 -13 -138 -26 -155 -28 -136 -23 -294 -59 -319 -74
-17 -10 -38 -31 -48 -48 -35 -60 -32 -89 28 -274 31 -96 66 -209 79 -250 13
-41 30 -97 38 -123 21 -67 55 -113 97 -131 22 -10 83 -17 165 -21 72 -3 175
-8 230 -10 55 -3 165 -7 245 -11 295 -13 306 -13 349 9 73 37 104 134 65 209
-9 18 -40 67 -69 108 -28 41 -123 181 -210 310 -222 328 -216 321 -255 341
-44 24 -85 23 -240 -7z"/>
<path d="M3613 3779 c-22 -11 -51 -39 -69 -67 -54 -81 -211 -325 -304 -472
-14 -21 -56 -88 -95 -147 -65 -101 -69 -112 -70 -165 0 -61 17 -93 69 -132 23
-18 42 -21 114 -20 79 0 222 9 342 19 25 2 88 7 140 10 52 3 120 8 150 10 30
3 91 7 134 10 83 6 132 23 161 55 29 32 225 587 225 637 0 43 -32 105 -64 127
-22 14 -148 49 -226 62 -14 3 -63 13 -110 24 -47 10 -128 29 -180 41 -132 29
-171 31 -217 8z"/>
<path d="M1778 2344 c-2 -1 -55 -5 -118 -8 -63 -4 -131 -9 -150 -11 -19 -2
-75 -7 -125 -10 -399 -26 -395 -26 -440 -67 -26 -25 -39 -56 -156 -386 -47
-135 -79 -239 -79 -263 0 -71 62 -138 140 -152 14 -3 140 -31 280 -62 140 -31
278 -58 306 -59 86 -2 103 16 284 304 38 60 120 188 228 355 94 145 97 152 97
207 0 61 -17 94 -69 132 -22 17 -43 21 -112 22 -46 0 -85 0 -86 -2z"/>
<path d="M3165 2318 c-42 -14 -90 -63 -102 -103 -20 -63 -3 -103 129 -296 69
-101 181 -267 249 -368 68 -100 137 -192 152 -203 40 -28 100 -33 188 -14 41
8 88 17 104 20 17 2 93 16 170 31 77 14 156 28 175 31 58 9 123 46 144 82 10
19 19 52 19 75 1 34 -49 215 -93 337 -5 14 -28 85 -51 158 -45 145 -75 193
-132 211 -18 5 -90 12 -162 16 -71 3 -179 7 -240 10 -177 7 -375 16 -450 19
-38 2 -83 -1 -100 -6z"/>
<path d="M2489 1943 c-68 -29 -60 -14 -406 -721 -53 -108 -65 -142 -65 -179 2
-59 5 -64 232 -327 196 -227 226 -252 301 -249 58 3 88 23 180 124 46 51 95
104 109 119 258 278 253 272 253 338 0 49 4 40 -168 367 -29 55 -96 183 -150
285 -53 102 -105 193 -114 204 -39 44 -118 62 -172 39z"/>
</g>
</svg>
